<svg xmlns="http://www.w3.org/2000/svg" width="1920" height="1080" viewBox="0 0 1920 1080">
  <defs>
    <linearGradient id="bg" x1="0%" y1="0%" x2="100%" y2="100%">
      <stop offset="0%" style="stop-color:#0d0d0d"/>
      <stop offset="50%" style="stop-color:#1a1a1a"/>
      <stop offset="100%" style="stop-color:#0d0d0d"/>
    </linearGradient>
    <linearGradient id="goldBar" x1="0%" y1="0%" x2="100%" y2="0%">
      <stop offset="0%" style="stop-color:#d4af37"/>
      <stop offset="50%" style="stop-color:#f0d78c"/>
      <stop offset="100%" style="stop-color:#b8860b"/>
    </linearGradient>
    <radialGradient id="glow" cx="50%" cy="40%" r="60%">
      <stop offset="0%" style="stop-color:#d4af37;stop-opacity:0.06"/>
      <stop offset="100%" style="stop-color:transparent"/>
    </radialGradient>
    <pattern id="sunburst" width="60" height="60" patternUnits="userSpaceOnUse">
      <path d="M30 0 L30 60 M0 30 L60 30 M10 10 L50 50 M50 10 L10 50" fill="none" stroke="#d4af37" stroke-width="0.6" opacity="0.15"/>
    </pattern>
  </defs>
  <rect width="1920" height="1080" fill="url(#bg)"/>
  <rect width="1920" height="1080" fill="url(#glow)"/>
  <rect width="1920" height="1080" fill="url(#sunburst)"/>
  <rect x="0" y="400" width="1920" height="8" fill="url(#goldBar)" opacity="0.5"/>
  <rect x="0" y="672" width="1920" height="8" fill="url(#goldBar)" opacity="0.5"/>
  <path d="M960 100 L1000 200 L960 180 L920 200 Z" fill="none" stroke="#d4af37" stroke-width="2" opacity="0.4"/>
  <path d="M400 540 L480 540 L440 500 M520 540 L600 540 L560 500" fill="none" stroke="#d4af37" stroke-width="1.5" opacity="0.25"/>
  <path d="M1320 540 L1400 540 L1360 500 M1440 540 L1520 540 L1480 500" fill="none" stroke="#d4af37" stroke-width="1.5" opacity="0.25"/>
</svg>
